# xmcd
#
# Track frame offsets: 
#        150
#        9187
#        19901
#        30776
#        41029
#        58391
#        70353
#        88053
#        99153
#        112428
#        122953
#        134915
#        150552
#        162912
#        177237
#        193549
#        204743
#        215580
#
# Disc length: 3043 seconds
#
# Revision: 0
# Processed by: cddbd v1.5.2PL0 Copyright (c) Steve Scherf et al.
# Submitted via: ExactAudioCopy v1.0b3
#
DISCID=070be112
DTITLE=The Ballroom Rockets - Ready
DYEAR=2007
DGENRE=
TTITLE0=Jeannie, Jeannie, Jeannie
TTITLE1=Tonight will be the last nicht
TTITLE2=I'm ready if you're willing
TTITLE3=Try me
TTITLE4=Table dancin' women
TTITLE5=Rock Island Line
TTITLE6=Rock
TTITLE7=Oldschool Boogie
TTITLE8=Cry, cry, cry
TTITLE9=I'll make it all up to you
TTITLE10=Feelin' low
TTITLE11=Rock with me
TTITLE12=Blue moon baby
TTITLE13=Stab me in the back
TTITLE14=Tunnin' shoes
TTITLE15=Thirty days
TTITLE16=Hey Porter
TTITLE17=I'm ready
EXTD=
EXTT0=
EXTT1=
EXTT2=
EXTT3=
EXTT4=
EXTT5=
EXTT6=
EXTT7=
EXTT8=
EXTT9=
EXTT10=
EXTT11=
EXTT12=
EXTT13=
EXTT14=
EXTT15=
EXTT16=
EXTT17=
PLAYORDER=
